<svg width="400" height="314" viewBox="0 0 400 314" fill="none" xmlns="http://www.w3.org/2000/svg">
<path d="M374.2 153.6C374.8 156.2 377.2 158.2 380 158.2C383.3 158.2 386 155.5 386 152.2C386 148.9 383.3 146.2 380 146.2C376.7 146.2 374 148.9 374 152.2C374 152.6 374 152.9 374.1 153.3L317.8 163.5L358 145.5C358.3 146.3 359.1 146.8 360 146.8C361.2 146.8 362.2 145.8 362.2 144.6C362.2 143.4 361.2 142.4 360 142.4C358.8 142.4 357.8 143.4 357.8 144.6C357.8 144.9 357.9 145.1 358 145.4L315.5 161.7L364.5 124.2C365 124.9 365.9 125.4 366.9 125.4C368.6 125.4 369.9 124.1 369.9 122.4C369.9 120.7 368.6 119.4 366.9 119.4C365.2 119.4 363.9 120.7 363.9 122.4C363.9 123 364.1 123.6 364.4 124.1L317.2 156.3L344.2 126.1C344.6 126.3 345 126.5 345.4 126.5C346.6 126.5 347.6 125.5 347.6 124.3C347.6 123.1 346.6 122.1 345.4 122.1C344.2 122.1 343.2 123.1 343.2 124.3C343.2 125 343.5 125.6 344.1 126L310.5 159.5L339.4 106.5C340.1 106.7 340.8 106.9 341.5 106.9C344.8 106.9 347.5 104.2 347.5 100.9C347.5 97.6 344.8 94.9 341.5 94.9C338.2 94.9 335.5 97.6 335.5 100.9C335.5 103.3 337 105.4 339.1 106.4L312.5 149.5L324 113.9C324.4 114.1 324.8 114.3 325.2 114.3C326.4 114.3 327.4 113.3 327.4 112.1C327.4 110.9 326.4 109.9 325.2 109.9C324 109.9 323 110.9 323 112.1C323 112.8 323.3 113.4 323.8 113.8L306.2 159.6L311.5 93.3C311.6 93.3 311.7 93.3 311.7 93.3C313.4 93.3 314.7 92 314.7 90.3C314.7 88.6 313.4 87.3 311.7 87.3C310 87.3 308.7 88.6 308.7 90.3C308.7 91.8 309.8 93.1 311.3 93.3L304.2 145.7L300.4 110.1C301.5 110 302.4 109.1 302.4 107.9C302.4 106.7 301.4 105.7 300.2 105.7C299 105.7 298 106.7 298 107.9C298 109.1 299 110.1 300.2 110.1H300.3L302.7 156.9L302.4 159.2L281.3 99.3C283.6 98.5 285.3 96.3 285.3 93.6C285.3 90.3 282.6 87.6 279.3 87.6C276 87.6 273.3 90.3 273.3 93.6C273.3 96.9 276 99.6 279.3 99.6C279.9 99.6 280.4 99.5 281 99.4L294.9 146.8L277.8 117.4C278.3 117 278.6 116.4 278.6 115.7C278.6 114.5 277.6 113.5 276.4 113.5C275.2 113.5 274.2 114.5 274.2 115.7C274.2 116.9 275.2 117.9 276.4 117.9C276.9 117.9 277.3 117.7 277.7 117.5L298 157.3L298.9 160.3L253 112.1C253.5 111.6 253.7 110.9 253.7 110.1C253.7 108.4 252.4 107.1 250.7 107.1C249 107.1 247.7 108.4 247.7 110.1C247.7 111.8 249 113.1 250.7 113.1C251.5 113.1 252.3 112.8 252.8 112.2L287.2 152.8L258.6 132C258.9 131.6 259 131.2 259 130.7C259 129.5 258 128.5 256.8 128.5C255.6 128.5 254.6 129.5 254.6 130.7C254.6 131.9 255.6 132.9 256.8 132.9C257.5 132.9 258.1 132.6 258.5 132.1L294.3 161.1L295.8 162.9L237.2 138.5C237.5 137.8 237.7 137 237.7 136.2C237.7 132.9 235 130.2 231.7 130.2C228.4 130.2 225.7 132.9 225.7 136.2C225.7 139.5 228.4 142.2 231.7 142.2C234.1 142.2 236.1 140.8 237.1 138.8L284.1 161.4L248.9 154C248.9 153.9 248.9 153.7 248.9 153.5C248.9 152.3 247.9 151.3 246.7 151.3C245.5 151.3 244.5 152.3 244.5 153.5C244.5 154.7 245.5 155.7 246.7 155.7C247.7 155.7 248.6 155 248.8 154.1L294.3 166.3L227.8 168C227.8 166.4 226.4 165.1 224.8 165.1C223.1 165.1 221.8 166.4 221.8 168.1C221.8 169.8 223.1 171.1 224.8 171.1C226.4 171.1 227.7 169.8 227.8 168.2L285.7 169.9L248.2 178C248 177 247.1 176.3 246 176.3C244.8 176.3 243.8 177.3 243.8 178.5C243.8 179.7 244.8 180.7 246 180.7C247.2 180.7 248.2 179.7 248.2 178.5C248.2 178.4 248.2 178.3 248.2 178.2L292.2 171.2L240.5 195.8C239.4 194.1 237.5 192.9 235.4 192.9C232.1 192.9 229.4 195.6 229.4 198.9C229.4 202.2 232.1 204.9 235.4 204.9C238.7 204.9 241.4 202.2 241.4 198.9C241.4 198 241.2 197.1 240.8 196.3L290.7 175.8L257.4 200.1C257 199.5 256.4 199.2 255.6 199.2C254.4 199.2 253.4 200.2 253.4 201.4C253.4 202.6 254.4 203.6 255.6 203.6C256.8 203.6 257.8 202.6 257.8 201.4C257.8 201 257.7 200.5 257.4 200.2L292.6 177.3L252.9 223.7C252.4 222.7 251.4 222 250.2 222C248.5 222 247.2 223.3 247.2 225C247.2 226.7 248.5 228 250.2 228C251.9 228 253.2 226.7 253.2 225C253.2 224.6 253.1 224.2 253 223.9L296.8 178.1L275.4 215.4C275.1 215.2 274.7 215.1 274.3 215.1C273.1 215.1 272.1 216.1 272.1 217.3C272.1 218.5 273.1 219.5 274.3 219.5C275.5 219.5 276.5 218.5 276.5 217.3C276.5 216.5 276.1 215.9 275.5 215.5L284.4 201.8C278.2 214.3 272.7 227.2 268.2 240.5C262.4 257.5 258.7 275 254.8 292.5C254.2 295 258.1 296.1 258.6 293.6C262.2 277.3 265.7 261 270.8 245.1C276.6 226.9 284.4 209.3 293.6 192.6L280 238.5C279.8 238.5 279.7 238.5 279.5 238.5C277.8 238.5 276.5 239.8 276.5 241.5C276.5 243.2 277.8 244.5 279.5 244.5C281.2 244.5 282.5 243.2 282.5 241.5C282.5 240.1 281.5 238.9 280.2 238.6L301.5 179.1C301.6 178.9 301.7 178.7 301.9 178.5L297.2 224.4C296.8 224.2 296.4 224 295.9 224C294.7 224 293.7 225 293.7 226.2C293.7 227.4 294.7 228.4 295.9 228.4C297.1 228.4 298.1 227.4 298.1 226.2C298.1 225.5 297.8 224.9 297.3 224.5L303.3 186.6L310.3 240.4C307.4 240.8 305.1 243.3 305.1 246.4C305.1 249.7 307.8 252.4 311.1 252.4C314.4 252.4 317.1 249.7 317.1 246.4C317.1 243.1 314.4 240.4 311.1 240.4C310.9 240.4 310.8 240.4 310.7 240.4L306 177.1L306.3 177.7L321 222.6C319.9 222.7 319 223.7 319 224.8C319 226 320 227 321.2 227C322.4 227 323.4 226 323.4 224.8C323.4 223.6 322.4 222.6 321.2 222.6H321.1L311.3 186L340.6 234C339.7 234.5 339.2 235.5 339.2 236.6C339.2 238.3 340.5 239.6 342.2 239.6C343.9 239.6 345.2 238.3 345.2 236.6C345.2 234.9 343.9 233.6 342.2 233.6C341.7 233.6 341.2 233.7 340.8 234L309.3 175.4L309.7 175.7L341.6 210.9C341.1 211.3 340.8 211.9 340.8 212.6C340.8 213.8 341.8 214.8 343 214.8C344.2 214.8 345.2 213.8 345.2 212.6C345.2 211.4 344.2 210.4 343 210.4C342.5 210.4 342.1 210.5 341.7 210.8L317.9 181L359.7 209.8C358.9 210.8 358.4 212.1 358.4 213.5C358.4 216.8 361.1 219.5 364.4 219.5C367.7 219.5 370.4 216.8 370.4 213.5C370.4 210.2 367.7 207.5 364.4 207.5C362.7 207.5 361.1 208.2 360 209.4L312.4 172.6L356.8 192.3C356.7 192.6 356.6 192.9 356.6 193.2C356.6 194.4 357.6 195.4 358.8 195.4C360 195.4 361 194.4 361 193.2C361 192 360 191 358.8 191C357.9 191 357.2 191.5 356.8 192.2L320.7 173.8L377 184.3C377 186 378.3 187.3 380 187.3C381.7 187.3 383 186 383 184.3C383 182.6 381.7 181.3 380 181.3C378.4 181.3 377.1 182.6 377 184.1L315.6 169.1L362.3 169C362.3 170.2 363.3 171.2 364.5 171.2C365.7 171.2 366.7 170.2 366.7 169C366.7 167.8 365.7 166.8 364.5 166.8C363.3 166.8 362.4 167.7 362.3 168.9L319.5 166.6L374.2 153.6Z" fill="white"/>
<path d="M211.3 106.7C209.3 106.7 207.6 108.3 207.6 110.3L125.2 108.2L181.5 93.1C181.8 94.3 182.9 95.1 184.1 95.1C185.6 95.1 186.8 93.9 186.8 92.4C186.8 90.9 185.6 89.7 184.1 89.7C182.6 89.7 181.4 90.9 181.4 92.4C181.4 92.6 181.4 92.8 181.5 93L137.9 102.2L196.1 74.2C197.3 76.7 199.8 78.4 202.8 78.4C206.9 78.4 210.2 75.1 210.2 71C210.2 66.9 206.9 63.6 202.8 63.6C198.7 63.6 195.4 66.9 195.4 71C195.4 72 195.6 73 196 73.9L123.4 104.1L125.3 101.9L169.6 66C170.1 66.6 170.9 67 171.7 67C173.2 67 174.4 65.8 174.4 64.3C174.4 62.8 173.2 61.6 171.7 61.6C170.2 61.6 169 62.8 169 64.3C169 64.9 169.2 65.5 169.6 65.9L134.1 91.6L176.7 41.4C177.4 42.1 178.3 42.5 179.4 42.5C181.5 42.5 183.1 40.8 183.1 38.8C183.1 36.7 181.4 35.1 179.4 35.1C177.4 35.1 175.7 36.8 175.7 38.8C175.7 39.7 176.1 40.6 176.6 41.2L120 101L121.1 97.2L146.2 47.9C146.7 48.2 147.2 48.5 147.8 48.5C149.3 48.5 150.5 47.3 150.5 45.8C150.5 44.3 149.3 43.1 147.8 43.1C146.3 43.1 145.1 44.3 145.1 45.8C145.1 46.6 145.5 47.4 146.1 47.9L124.6 84L141.8 25.2C142.5 25.4 143.2 25.5 143.9 25.5C148 25.5 151.3 22.2 151.3 18.1C151.3 14 148 10.7 143.9 10.7C139.8 10.7 136.5 14 136.5 18.1C136.5 21.3 138.6 24.1 141.5 25.1L115.3 99.3L114.9 96.4L117.9 38.5H118C119.5 38.5 120.7 37.3 120.7 35.8C120.7 34.3 119.5 33.1 118 33.1C116.5 33.1 115.3 34.3 115.3 35.8C115.3 37.2 116.4 38.4 117.8 38.5L113 82.6L104.2 17.7C106 17.5 107.4 15.9 107.4 14C107.4 11.9 105.7 10.3 103.7 10.3C101.6 10.3 100 12 100 14C100 16.1 101.7 17.7 103.7 17.7C103.8 17.7 103.9 17.7 104 17.7L110.6 99.8L88.7 43C89.3 42.5 89.7 41.7 89.7 40.9C89.7 39.4 88.5 38.2 87 38.2C85.5 38.2 84.3 39.4 84.3 40.9C84.3 42.4 85.5 43.6 87 43.6C87.6 43.6 88.1 43.4 88.5 43.1L102.7 87.2L69.7 33.9C72.3 32.7 74.1 30.1 74.1 27.1C74.1 23 70.8 19.7 66.7 19.7C62.6 19.7 59.3 23 59.3 27.1C59.3 31.2 62.6 34.5 66.7 34.5C67.6 34.5 68.5 34.3 69.3 34L105 99.7L63.5 58.2C64.1 57.7 64.6 56.9 64.6 56.1C64.6 54.6 63.4 53.4 61.9 53.4C60.4 53.4 59.2 54.6 59.2 56.1C59.2 57.6 60.4 58.8 61.9 58.8C62.5 58.8 63 58.6 63.4 58.3L96.9 95.7L38.4 55.8C38.8 55.2 39 54.5 39 53.7C39 51.6 37.3 50 35.3 50C33.2 50 31.6 51.7 31.6 53.7C31.6 55.8 33.3 57.4 35.3 57.4C36.5 57.4 37.6 56.8 38.2 55.9L98.8 102.3L46.2 82.2C46.3 81.9 46.4 81.6 46.4 81.2C46.4 79.7 45.2 78.5 43.7 78.5C42.2 78.5 41 79.7 41 81.2C41 82.7 42.2 83.9 43.7 83.9C44.8 83.9 45.8 83.2 46.2 82.3L96 104.6L26.2 92C26.3 91.6 26.3 91.1 26.3 90.7C26.3 86.6 23 83.3 18.9 83.3C14.8 83.3 11.5 86.6 11.5 90.7C11.5 94.8 14.8 98.1 18.9 98.1C22.4 98.1 25.4 95.7 26.1 92.4L93.8 108.6L40.7 111.4C40.6 110 39.4 108.8 38 108.8C36.5 108.8 35.3 110 35.3 111.5C35.3 113 36.5 114.2 38 114.2C39.5 114.2 40.7 113 40.7 111.5L98.6 111.6L22.6 130.2C22.5 128.2 20.9 126.7 18.9 126.7C16.8 126.7 15.2 128.4 15.2 130.4C15.2 132.5 16.9 134.1 18.9 134.1C21 134.1 22.6 132.4 22.6 130.4L92.3 117.4L47.5 140.2C47 139.3 46.1 138.7 45.1 138.7C43.6 138.7 42.4 139.9 42.4 141.4C42.4 142.9 43.6 144.1 45.1 144.1C46.6 144.1 47.8 142.9 47.8 141.4C47.8 141 47.7 140.6 47.6 140.3L102.6 116L43.7 161.6C42.3 160.1 40.4 159.2 38.3 159.2C34.2 159.2 30.9 162.5 30.9 166.6C30.9 170.7 34.2 174 38.3 174C42.4 174 45.7 170.7 45.7 166.6C45.7 164.9 45.1 163.2 44.1 162L95.8 126.4L66.3 163C65.9 162.7 65.3 162.5 64.7 162.5C63.2 162.5 62 163.7 62 165.2C62 166.7 63.2 167.9 64.7 167.9C66.2 167.9 67.4 166.7 67.4 165.2C67.4 164.3 67 163.6 66.4 163.1L105.9 119.5L106.4 119.2L67.4 191.8C66.9 191.5 66.3 191.3 65.6 191.3C63.5 191.3 61.9 193 61.9 195C61.9 197.1 63.6 198.7 65.6 198.7C67.7 198.7 69.3 197 69.3 195C69.3 193.7 68.6 192.5 67.5 191.8L103.8 132.4L91.7 177.8H91.6C90.1 177.8 88.9 179 88.9 180.5C88.9 182 90.1 183.2 91.6 183.2C93.1 183.2 94.3 182 94.3 180.5C94.3 179.1 93.2 177.9 91.9 177.8L110.1 122.2L110.5 121.5L104.6 199.9C104.4 199.9 104.2 199.9 104 199.9C99.9 199.9 96.6 203.2 96.6 207.3C96.6 211.4 99.9 214.7 104 214.7C108.1 214.7 111.4 211.4 111.4 207.3C111.4 203.5 108.6 200.4 104.9 199.9L113.6 133.3L121 180.2C120.4 180.7 120 181.5 120 182.3C120 183.8 121.2 185 122.7 185C124.2 185 125.4 183.8 125.4 182.3C125.4 180.8 124.2 179.6 122.7 179.6C122.1 179.6 121.6 179.8 121.1 180.1L115.3 123.2C115.4 123.4 115.6 123.7 115.7 123.9L142.1 197.6C140.5 198 139.3 199.5 139.3 201.2C139.3 203.3 141 204.9 143 204.9C145.1 204.9 146.7 203.2 146.7 201.2C146.7 199.1 145 197.5 143 197.5C142.8 197.5 142.6 197.5 142.4 197.6L125.5 140.8C136.9 161.5 146.5 183.2 153.7 205.8C160 225.6 164.4 245.7 168.9 265.9C169.6 269 174.3 267.7 173.7 264.6C168.9 242.9 164.3 221.2 157.1 200.1C151.5 183.6 144.8 167.6 137 152.1L148 169.1C147.3 169.6 146.8 170.4 146.8 171.4C146.8 172.9 148 174.1 149.5 174.1C151 174.1 152.2 172.9 152.2 171.4C152.2 169.9 151 168.7 149.5 168.7C149 168.7 148.6 168.8 148.2 169.1L121.7 122.9L175.9 179.6C175.7 180 175.6 180.5 175.6 181C175.6 183.1 177.3 184.7 179.3 184.7C181.4 184.7 183 183 183 181C183 178.9 181.3 177.3 179.3 177.3C177.8 177.3 176.6 178.2 176 179.4L126.8 121.9L170.4 150.2C170.1 150.6 170 151.1 170 151.7C170 153.2 171.2 154.4 172.7 154.4C174.2 154.4 175.4 153.2 175.4 151.7C175.4 150.2 174.2 149 172.7 149C171.8 149 171 149.4 170.5 150.1L129.2 120L191 145.3C190.5 146.3 190.3 147.4 190.3 148.5C190.3 152.6 193.6 155.9 197.7 155.9C201.8 155.9 205.1 152.6 205.1 148.5C205.1 144.4 201.8 141.1 197.7 141.1C195 141.1 192.6 142.5 191.3 144.7L127.2 114.2L181.7 122.8C181.7 122.9 181.7 123.1 181.7 123.2C181.7 124.7 182.9 125.9 184.4 125.9C185.9 125.9 187.1 124.7 187.1 123.2C187.1 121.7 185.9 120.5 184.4 120.5C183.1 120.5 182 121.4 181.7 122.7L135.3 112.7L207 110.5C207.1 112.5 208.7 114.1 210.7 114.1C212.8 114.1 214.4 112.4 214.4 110.4C215 108.3 213.3 106.7 211.3 106.7Z" fill="white"/>
</svg>
