<?xml version="1.0" encoding="UTF-8"?>
<!DOCTYPE svg PUBLIC "-//W3C//DTD SVG 1.1//EN" "http://www.w3.org/Graphics/SVG/1.1/DTD/svg11.dtd">
<!-- Creator: CorelDRAW 2021 (64-Bit) -->
<svg xmlns="http://www.w3.org/2000/svg" xml:space="preserve" width="137.232mm" height="32.1992mm" version="1.1" style="shape-rendering:geometricPrecision; text-rendering:geometricPrecision; image-rendering:optimizeQuality; fill-rule:evenodd; clip-rule:evenodd"
viewBox="0 0 14952.23 3508.3"
 xmlns:xlink="http://www.w3.org/1999/xlink"
 xmlns:xodm="http://www.corel.com/coreldraw/odm/2003">
 <defs>
  <style type="text/css">
   <![CDATA[
    .fil0 {fill:#CA2032;fill-rule:nonzero}
    .fil1 {fill:#1D3564;fill-rule:nonzero}
   ]]>
  </style>
 </defs>
 <g id="Layer_x0020_1">
  <metadata id="CorelCorpID_0Corel-Layer"/>
  <g id="_2610900828624">
   <path class="fil0" d="M1858.14 3465.98c-132.98,0 -240.26,-42.55 -319.68,-126.42 -79.64,-84.26 -119.76,-181.54 -119.76,-288.82 0,-113.8 41.66,-211.67 122.61,-291.82 81.64,-79.64 180.69,-119.69 296.61,-119.69 67.45,0 130,10.34 186.5,30.52 56.28,21.21 115.16,60.38 173.12,116.11l17.61 16.38 -107.86 106.52 -16.45 -16.53c-70.49,-68.5 -150.6,-101.82 -242.77,-101.82 -79.92,0 -144.79,24.29 -198.1,75.41 -52.39,50.94 -78.1,112.81 -78.1,189.5 0,66.8 25.03,125.42 76.23,179.35 51.61,53.54 121.1,79.71 211.7,79.71 123.64,0 202.44,-46.85 241.99,-143.33l-187.3 0 0 -147.29 358.62 0 0 23.68c0,52.93 -3.39,93.59 -10.65,125.62 -7.16,31.83 -21.95,67.3 -43.82,105.09 -22.99,39.01 -53.31,73.41 -90.25,103.05 -37.18,30.44 -77.57,52.54 -120.54,65.11 -42.56,13.76 -92.53,19.68 -149.72,19.68z"/>
   <polygon class="fil0" points="3492.82,3471.22 3278.23,2987.26 3062.09,3471.22 2904,3471.22 3279.49,2633.98 3650.45,3471.22 "/>
   <polygon class="fil0" points="7608.03,3471.22 7393.2,2987.26 7177.54,3471.22 7019.09,3471.22 7395.44,2633.98 7765.28,3471.22 "/>
   <polygon class="fil0" points="4412.43,3442.14 4759.97,2810.04 4445.94,2810.04 4445.94,2663.09 5003.28,2663.09 4653.7,3295.77 4980.14,3295.77 4980.14,3442.14 "/>
   <polygon class="fil0" points="6066.4,2859.88 6211.59,2859.88 6211.59,3458.42 6066.4,3458.42 "/>
   <polygon class="fil0" points="6066.4,2646.78 6211.59,2646.78 6211.59,2791.07 6066.4,2791.07 "/>
   <polygon class="fil0" points="8671.12,2954.77 8671.12,3440.11 8523.56,3440.11 8523.56,2596.91 9064.59,3153.72 9064.59,2661.07 9212.19,2661.07 9212.19,3508.3 "/>
   <polygon class="fil0" points="10269.87,3442.14 10269.87,2810.04 10095.52,2810.04 10095.52,2663.09 10590.82,2663.09 10590.82,2810.04 10415.74,2810.04 10415.74,3442.14 "/>
   <polygon class="fil0" points="11591.97,3442.14 11591.97,2663.09 12045.45,2663.09 12045.45,2810.04 11738.03,2810.04 11738.03,2945.65 12045.45,2945.65 12045.45,3091.93 11738.03,3091.93 11738.03,3295.77 12045.45,3295.77 12045.45,3442.14 "/>
   <path class="fil0" d="M13204.27 3005.85c58.88,-2.77 102.93,-11.84 131.53,-28.33 28.98,-15.76 42.32,-40.83 42.32,-78.02 0,-27.34 -11.15,-50.78 -33.67,-70.84 -14.49,-12.95 -50.47,-28.63 -140.18,-30.94l0 208.14zm-146.25 436.3l0 -779.05 170.85 0c87.59,0 160.32,21.37 215.62,63.3 56.73,43.55 85.53,101.05 85.53,171.08 0,69.92 -30.29,129.96 -89.83,176.31 -53.73,42.97 -132.99,65.65 -235.92,67.3l0 301.05 -146.25 0z"/>
   <path class="fil1" d="M6865.97 952.18c0,-449.84 224.2,-828.25 398.14,-946.33 -477.59,50.5 -850.54,454.83 -850.54,946.33 0,488.16 367.88,889.62 840.71,944.86 -180.05,-119.7 -388.3,-496.6 -388.3,-944.86z"/>
   <path class="fil0" d="M7846.45 722.93l442.53 0c-95.21,-381.91 -420.58,-673.88 -819.98,-717.08 144.87,97.97 319.87,372.15 377.46,717.08z"/>
   <path class="fil1" d="M7862.14 853.42c2.04,32.86 3.96,65.77 3.96,98.74 0,449.26 -216.47,827.31 -394.87,946.13 476.43,-52.55 847.23,-455.82 847.23,-946.13 0,-32.97 -2.34,-65.87 -6.15,-98.74l-450.17 0z"/>
   <path class="fil0" d="M7583.03 722.93c-24.91,-348.93 -102.58,-625.53 -166.16,-719.82 -17.18,-1.46 -33.94,-3.12 -51.01,-3.12 -10.83,0 -21.41,1.66 -32.48,1.66 -62.88,93.82 -141.71,370.89 -167.43,721.28l417.08 0z"/>
   <path class="fil1" d="M7589.99 853.42l-313.76 0 -117.16 0 -200.84 0 0 181.92 199.99 0c10.88,418.23 98.17,760.43 171.36,867.51 12.76,0 23.87,2.04 36.28,2.04 17.07,0 35.06,-2.04 52.78,-2.92 76.84,-114.53 173.67,-495.95 173.67,-949.81 0,-32.97 -1,-65.87 -2.31,-98.74z"/>
   <polygon class="fil1" points="-0,52.52 1208.24,52.52 1208.24,434.09 796.64,434.09 796.64,1849.8 409.66,1849.8 409.66,434.09 -0,434.09 "/>
   <polygon class="fil1" points="1468.85,52.52 2480.5,52.52 2480.5,408.14 1856.51,408.14 1856.51,770.34 2480.5,770.34 2480.5,1121.34 1856.51,1121.34 1856.51,1494.15 2480.5,1494.15 2480.5,1849.8 1468.85,1849.8 "/>
   <polygon class="fil1" points="2817.84,52.52 3205.06,52.52 3205.06,811.28 3210.37,811.28 3806.3,52.52 4281.23,52.52 3598.82,910.44 4310.29,1849.8 3844.43,1849.8 3210.37,1007.84 3205.06,1007.84 3205.06,1849.8 2817.84,1849.8 "/>
   <polygon class="fil1" points="5778.19,52.52 6157.22,52.52 6157.22,1849.8 5780.3,1849.8 4957.99,686.16 4957.99,1849.8 4570.85,1849.8 4570.85,52.52 4953.49,52.52 5778.19,1207.68 "/>
   <path class="fil1" d="M8971.25 375.55l0 459.87 150.68 0c64.46,0 119.43,-23.57 165.86,-70.27 46.65,-46.39 69.26,-101.79 69.26,-165.47 0,-73.38 -25.87,-129.39 -77.49,-169.7 -52.32,-40.25 -126.62,-60.05 -222.44,-60.05l-85.87 5.61zm-379.7 -323.02l615.36 0c165.06,0 298.63,47.73 399.37,144.33 101.29,95.74 151.63,222.7 151.63,380.03 0,102.58 -23.9,200.49 -73.69,293.51 -50.35,92.29 -125.5,162.01 -225.43,207.14 -100.83,45.78 -186.46,69.19 -257.77,71.5l-224.58 5.3 0 695.44 -384.9 0 0 -1797.24z"/>
   <path class="fil1" d="M10661.78 641.02l-211.44 529.62 427.27 0 -215.83 -529.62zm-149.9 -588.52l299.69 0 732.96 1797.27 -390.55 0 -143.53 -353.3 -689.99 0 -141.19 353.3 -387.68 0 720.28 -1797.27z"/>
   <path class="fil1" d="M12202.46 372.55l0 468.16 83.63 0c202.55,0 304.29,-82.52 304.29,-247.38 0,-67.65 -26.52,-121.34 -79.56,-160.7 -52.46,-40.29 -125.11,-60.08 -218.74,-60.08l-89.63 0zm-389.76 -320.04l592.03 0c179.55,0 322.07,47.01 427.27,142.14 104.21,94.4 156.74,223.13 156.74,384.07 0,92.9 -24.18,187.92 -71.64,287.67 -48.13,99.43 -136.81,177.46 -265.72,233.58l503.38 749.82 -445.53 0 -465.19 -695.43 -44.17 0 0 695.43 -387.18 0 0 -1797.28z"/>
   <polygon class="fil1" points="13459.78,52.52 13846.85,52.52 13846.85,811.28 13852.53,811.28 14447.58,52.52 14923.78,52.52 14240.13,910.44 14952.23,1849.8 14486.24,1849.8 13852.53,1007.84 13846.85,1007.84 13846.85,1849.8 13459.78,1849.8 "/>
  </g>
 </g>
</svg>
