<svg width="1640" height="356" viewBox="0 0 1640 356" fill="none" xmlns="http://www.w3.org/2000/svg">
<path d="M832.309 163.618C849.812 158.74 868.324 158.796 885.798 163.778C889.392 164.755 892.844 166.194 896.069 168.058C895.869 179.528 896.068 191.058 895.958 202.488C884.348 193.618 869.618 187.998 854.858 189.858C848.991 190.39 843.3 192.143 838.149 195.003C832.998 197.863 828.502 201.768 824.949 206.468C815.949 218.208 813.858 233.798 815.408 248.158C816.568 259.398 821.218 270.628 829.958 278.078C839.038 286.148 851.768 289.008 863.648 288.078C875.388 286.728 886.468 281.758 895.958 274.818C896.058 285.688 895.958 296.558 896.038 307.428C881.318 316.188 863.669 318.428 846.819 317.618C829.579 316.708 812.388 310.178 799.908 298.058C786.348 284.988 778.989 266.348 778.119 247.678C777.239 228.268 781.188 208.018 792.358 191.808C801.718 177.978 816.358 168.188 832.358 163.588L832.309 163.618Z" fill="#777777"/>
<path d="M712 167.06C723.94 167.06 735.89 166.89 747.83 167.12C747.69 217.25 747.83 267.39 747.77 317.52H712.02C712.02 267.367 712.02 217.214 712.02 167.06H712Z" fill="#777777"/>
<path d="M455.01 108.08H507.38C523.68 149.467 540.013 190.843 556.38 232.21C560.55 242.56 564.45 253.03 568.82 263.3C589.82 211.58 611.06 159.99 631.87 108.2C648.66 107.93 665.46 108.14 682.26 108.1C682.22 178.1 682.22 248.1 682.26 318.1C670.14 318.1 658.03 318.2 645.92 318.03C646.05 266.38 645.92 214.73 645.98 163.03C645.98 160.71 645.92 158.39 645.76 156.03C645.053 157.105 644.421 158.228 643.87 159.39C623.06 212.26 601.87 264.98 581.16 317.9C572.54 318.21 563.91 317.9 555.28 318.06C533.81 265.19 512.61 212.2 491.28 159.29C490.72 158.19 490.12 157.12 489.47 156.09C489.03 178.72 489.4 201.37 489.28 224C489.28 255.333 489.28 286.667 489.28 318C477.85 318 466.42 318 455 318C455 248 455 178 455 108L455.01 108.08Z" fill="#777777"/>
<path d="M0 0H166.5C166.5 55.5 166.5 111 166.5 166.5H0V0Z" fill="#F25022"/>
<path d="M184 0H350.5C350.5 55.5 350.5 111 350.5 166.5H184.01C184.01 111 184.01 55.5 184.01 0H184Z" fill="#80BA01"/>
<path d="M1501.7 97.9395C1517.05 87.9395 1536.88 87.0195 1554.18 91.7795C1554.33 102.06 1554.18 112.35 1554.25 122.64C1546.03 119.02 1536.36 116.64 1527.71 120.21C1520.85 122.93 1516.77 129.97 1515.71 137.01C1514.42 145.94 1515.26 155.009 1515.04 164.009C1532.6 164.009 1550.16 164.009 1567.72 164.009C1567.85 152.609 1567.58 141.2 1567.87 129.8C1579.81 126.4 1591.62 122.59 1603.5 119.01C1603.6 134.01 1603.36 149.01 1603.63 164.09C1615.5 163.92 1627.38 164.089 1639.26 164.009V193.25C1627.34 192.76 1615.41 193.12 1603.49 193.08C1603.54 209.89 1603.49 226.7 1603.49 243.52C1603.68 252.83 1602.99 262.19 1604.08 271.47C1604.74 276.94 1606.73 283 1611.86 285.83C1620.45 290.64 1631.35 288.54 1639.24 283.26V312.79C1628.95 317.26 1617.45 318.62 1606.32 317.79C1595.76 317.01 1584.82 313.17 1577.93 304.79C1569.93 295.3 1567.93 282.45 1567.76 270.43C1567.67 244.63 1567.76 218.83 1567.76 193.02C1550.19 193.02 1532.62 193.02 1515.06 193.02C1515.06 233.513 1515.06 274.003 1515.06 314.49H1479.06C1479.06 274.01 1479.06 233.533 1479.06 193.06C1470.71 192.9 1462.35 193.059 1454 192.929C1454 183.319 1454.07 173.7 1454 164.08C1462.31 163.89 1470.63 163.97 1479 164.03C1479.61 151.25 1477.66 138.1 1481.48 125.65C1484.69 114.265 1491.9 104.422 1501.79 97.9295L1501.7 97.9395Z" fill="#777777"/>
<path d="M1363.65 160.981C1381.65 158.751 1400.65 159.981 1417.1 168.241C1431.43 175.614 1442.47 188.107 1448.03 203.241C1452.36 214.671 1453.88 227.011 1453.63 239.181C1453.63 257.361 1448.75 276.021 1437.34 290.441C1426.66 304.441 1410.34 313.441 1393.07 316.321C1376.2 319.051 1358.38 318.321 1342.35 312.031C1325.94 305.507 1312.78 292.745 1305.77 276.541C1298.64 260.171 1297.89 241.751 1300.11 224.261C1302.33 206.771 1310.36 189.671 1323.86 178.041C1334.92 168.331 1349.16 162.831 1363.65 160.971V160.981Z" fill="#777777"/>
<path d="M974.07 170.135C984.01 164.135 996.64 163.665 1007.49 167.315C1007.44 179.315 1007.49 191.315 1007.49 203.315C1000.25 198.737 991.675 196.723 983.15 197.595C972.93 198.755 964.83 206.595 960.63 215.595C956.07 225.125 955.21 235.905 955.5 246.325C955.5 270.325 955.5 294.325 955.5 318.325H920C920 268.185 920 218.041 920 167.895C931.85 167.745 943.7 167.805 955.55 167.895C955.5 176.505 955.55 185.115 955.55 193.735C959.4 184.365 965.13 175.265 974.16 170.155L974.07 170.135Z" fill="#777777"/>
<path d="M184.01 189C239.497 189 294.993 189 350.5 189V355.49H184C184 299.99 184 244.493 184 189H184.01Z" fill="#FFB902"/>
<path d="M0 189C55.5 189 111 189 166.5 189C166.5 244.5 166.5 299.997 166.5 355.49H0V189Z" fill="#02A4EF"/>
<path d="M1222.42 161.299C1239.07 158.369 1256.5 160.519 1272.26 166.489C1272.26 177.489 1272.26 188.559 1272.26 199.589C1261.16 191.944 1247.92 188.032 1234.44 188.419C1227.71 188.679 1220.31 191.529 1217.24 197.929C1214.8 204.259 1216.49 212.559 1222.46 216.349C1232.67 223.179 1244.85 226.079 1255.46 232.199C1263.79 236.879 1271.87 242.999 1276.09 251.819C1284.02 268.339 1280.66 290.169 1266.72 302.489C1253.41 314.929 1234.24 318.369 1216.61 317.709C1204.09 316.899 1191.51 314.429 1180 309.309C1180.05 297.699 1179.93 286.099 1180.06 274.499C1189.73 281.63 1200.91 286.454 1212.73 288.599C1220.96 289.939 1229.91 289.999 1237.58 286.319C1244.92 282.669 1246.24 272.239 1241.88 265.859C1237.8 260.939 1231.81 258.229 1226.16 255.569C1215.55 250.799 1204.4 246.809 1195.08 239.659C1188.42 234.563 1183.68 227.368 1181.61 219.239C1178.73 207.239 1179.61 193.779 1186.61 183.319C1194.61 171.129 1208.37 163.819 1222.44 161.319L1222.42 161.299Z" fill="#777777"/>
<path d="M1074.28 161.037C1091.56 158.837 1109.79 159.817 1125.83 167.117C1139.82 173.563 1150.99 184.857 1157.28 198.907C1163.95 213.707 1165.57 230.327 1164.44 246.377C1163.33 262.047 1158.44 277.747 1148.61 290.197C1138.61 303.417 1123.46 312.377 1107.27 315.707C1093.37 318.601 1079.02 318.601 1065.11 315.707C1048.55 312.167 1033.22 302.557 1023.51 288.577C1012.11 272.377 1008.87 251.777 1010.32 232.367C1011.32 215.897 1016.42 199.297 1026.94 186.367C1038.46 171.897 1056.13 163.367 1074.28 161.067V161.037Z" fill="#777777"/>
<path d="M726.306 119.255C733.566 118.155 741.426 120.635 746.236 126.315C749.002 129.489 750.725 133.436 751.172 137.621C751.619 141.807 750.769 146.029 748.736 149.715C744.116 157.915 733.736 161.715 724.736 159.715C715.386 158.035 707.596 149.345 708.016 139.655C707.746 129.455 716.276 120.365 726.276 119.225L726.306 119.255Z" fill="#777777"/>
</svg>
